<?xml version="1.0" encoding="utf-8"?>
<!-- Generator: Adobe Illustrator 15.1.0, SVG Export Plug-In . SVG Version: 6.00 Build 0)  -->
<!DOCTYPE svg PUBLIC "-//W3C//DTD SVG 1.1//EN" "http://www.w3.org/Graphics/SVG/1.1/DTD/svg11.dtd">
<svg version="1.1" id="Layer_1" xmlns="http://www.w3.org/2000/svg" xmlns:xlink="http://www.w3.org/1999/xlink" x="0px" y="0px"
	 width="295px" height="143.5px" viewBox="0 0 295 143.5" enable-background="new 0 0 295 143.5" xml:space="preserve">
<g>
	<g>
		<line fill="none" stroke="#A7A9AC" stroke-miterlimit="10" x1="169.089" y1="60.893" x2="280.964" y2="69.705"/>
		<line fill="none" stroke="#BE1E2D" stroke-miterlimit="10" x1="261.464" y1="108.018" x2="188.526" y2="22.768"/>
		<line fill="none" stroke="#6BC8BE" stroke-miterlimit="10" x1="182.401" y1="101.83" x2="267.839" y2="28.955"/>
		<line fill="none" stroke="#6BC8BE" stroke-miterlimit="10" x1="220.581" y1="121.475" x2="229.651" y2="9.455"/>
		<line fill="none" stroke="#BE1E2D" stroke-miterlimit="10" x1="188.526" y1="22.705" x2="182.214" y2="101.58"/>
		<line fill="none" stroke="#6BC8BE" stroke-miterlimit="10" x1="182.401" y1="101.768" x2="261.339" y2="108.08"/>
		<line fill="none" stroke="#6BC8BE" stroke-miterlimit="10" x1="261.479" y1="107.996" x2="267.776" y2="29.143"/>
		<line fill="none" stroke="#BE1E2D" stroke-miterlimit="10" x1="267.839" y1="29.018" x2="188.714" y2="22.768"/>
		<line fill="none" stroke="#A7A9AC" stroke-miterlimit="10" x1="169.276" y1="60.893" x2="229.672" y2="9.142"/>
		<line fill="none" stroke="#6BC8BE" stroke-miterlimit="10" x1="229.589" y1="9.455" x2="281.151" y2="69.768"/>
		<line fill="none" stroke="#6BC8BE" stroke-miterlimit="10" x1="280.964" y1="70.018" x2="220.064" y2="121.855"/>
		<line fill="none" stroke="#A7A9AC" stroke-miterlimit="10" x1="220.203" y1="121.463" x2="168.974" y2="60.971"/>
		<line fill="none" stroke="#A7A9AC" stroke-miterlimit="10" x1="169.026" y1="60.83" x2="261.542" y2="108.229"/>
		<line fill="none" stroke="#A7A9AC" stroke-miterlimit="10" x1="169.46" y1="60.616" x2="267.839" y2="28.955"/>
		<line fill="none" stroke="#BE1E2D" stroke-miterlimit="10" x1="188.776" y1="22.893" x2="220.326" y2="121.223"/>
		<line fill="none" stroke="#BE1E2D" stroke-miterlimit="10" x1="188.589" y1="22.705" x2="280.964" y2="69.768"/>
		<line fill="none" stroke="#6BC8BE" stroke-miterlimit="10" x1="229.671" y1="9.438" x2="182.276" y2="101.768"/>
		<line fill="none" stroke="#6BC8BE" stroke-miterlimit="10" x1="229.597" y1="9.542" x2="261.276" y2="108.018"/>
		<line fill="none" stroke="#6BC8BE" stroke-miterlimit="10" x1="267.714" y1="29.143" x2="220.321" y2="121.826"/>
		<line fill="none" stroke="#6BC8BE" stroke-miterlimit="10" x1="182.276" y1="101.83" x2="280.932" y2="69.763"/>
		<polygon fill="none" stroke="#231F20" stroke-width="0.75" stroke-miterlimit="10" points="261.677,108.366 220.56,121.65 
			182.093,101.971 168.809,60.854 188.489,22.387 229.606,9.103 268.073,28.783 281.358,69.9 		"/>
	</g>
	<g>
		<path d="M20.448,131.797h-1.262l-0.523-1.587h-2.519l-0.514,1.587h-1.008l2.174-6.665h1.454L20.448,131.797z M18.347,129.248
			l-0.955-2.974l-0.955,2.974H18.347z"/>
		<path d="M28.848,131.797h-1.204v-5.835l-1.813,5.835h-0.619l-1.823-5.835v5.835h-0.964v-6.665h1.847l1.372,4.292l1.349-4.292
			h1.856V131.797z"/>
		<path d="M36.619,131.797h-1.262l-0.523-1.587h-2.519l-0.514,1.587h-1.008l2.174-6.665h1.454L36.619,131.797z M34.518,129.248
			l-0.955-2.974l-0.955,2.974H34.518z"/>
		<path d="M40.351,131.797h-1.267v-5.635h-1.741v-1.03h4.75v1.03h-1.742V131.797z"/>
		<path d="M48.257,131.797h-4.256v-6.665h4.212v0.991h-3.032v1.807h2.438v0.967h-2.438v1.865h3.076V131.797z"/>
		<path d="M54.958,125.132v4.282c0,0.579-0.063,1.025-0.191,1.338s-0.375,0.582-0.741,0.809c-0.366,0.226-0.813,0.339-1.341,0.339
			c-0.534,0-0.974-0.098-1.317-0.293s-0.591-0.463-0.741-0.804c-0.15-0.34-0.226-0.773-0.226-1.301v-4.37h1.204v4.282
			c0,0.586,0.121,0.971,0.362,1.154c0.241,0.185,0.522,0.276,0.842,0.276c0.368,0,0.662-0.099,0.883-0.296
			c0.221-0.196,0.331-0.575,0.331-1.135v-4.282H54.958z"/>
		<path d="M62.6,131.797h-1.247l-1.018-2.739h-1.66v2.739h-1.18v-6.665h2.84c0.79,0,1.371,0.182,1.742,0.544
			c0.371,0.363,0.557,0.833,0.557,1.409c0,0.856-0.394,1.445-1.181,1.768L62.6,131.797z M58.675,128.096h1.469
			c0.425,0,0.742-0.091,0.95-0.273c0.207-0.183,0.312-0.433,0.312-0.752c0-0.293-0.103-0.529-0.308-0.711
			c-0.204-0.18-0.49-0.271-0.858-0.271h-1.564V128.096z"/>
		<path d="M73.747,131.797H72.5l-1.018-2.739h-1.66v2.739h-1.18v-6.665h2.84c0.79,0,1.371,0.182,1.742,0.544
			c0.371,0.363,0.557,0.833,0.557,1.409c0,0.856-0.394,1.445-1.181,1.768L73.747,131.797z M69.822,128.096h1.469
			c0.425,0,0.742-0.091,0.95-0.273c0.207-0.183,0.312-0.433,0.312-0.752c0-0.293-0.103-0.529-0.308-0.711
			c-0.204-0.18-0.49-0.271-0.858-0.271h-1.564V128.096z"/>
		<path d="M81.284,131.797h-1.262l-0.523-1.587H76.98l-0.514,1.587h-1.008l2.174-6.665h1.454L81.284,131.797z M79.183,129.248
			l-0.955-2.974l-0.955,2.974H79.183z"/>
		<path d="M83.227,131.797v-6.665h2.413c0.892,0,1.608,0.321,2.149,0.964c0.54,0.644,0.811,1.437,0.811,2.381
			s-0.278,1.733-0.835,2.368s-1.353,0.952-2.39,0.952H83.227z M84.439,130.815h0.984c0.527,0,0.976-0.202,1.343-0.605
			c0.368-0.403,0.552-1.004,0.552-1.802c0-0.651-0.16-1.202-0.482-1.652c-0.321-0.451-0.745-0.677-1.273-0.677h-1.123V130.815z"/>
		<path d="M92.063,131.797h-1.18v-6.665h1.18V131.797z"/>
		<path d="M97.104,131.899c-0.87,0-1.547-0.332-2.032-0.996c-0.484-0.664-0.727-1.484-0.727-2.461c0-0.97,0.258-1.781,0.772-2.435
			c0.515-0.652,1.194-0.979,2.039-0.979c0.851,0,1.523,0.326,2.018,0.979c0.494,0.653,0.741,1.47,0.741,2.449
			c0,1.028-0.257,1.859-0.77,2.492C98.632,131.583,97.951,131.899,97.104,131.899z M97.113,130.933c0.425,0,0.785-0.179,1.079-0.537
			c0.295-0.358,0.441-1.008,0.441-1.948c0-0.765-0.121-1.365-0.364-1.799c-0.243-0.436-0.621-0.652-1.133-0.652
			c-1.011,0-1.516,0.828-1.516,2.485c0,0.804,0.129,1.413,0.387,1.829C96.265,130.725,96.634,130.933,97.113,130.933z"/>
		<path d="M110.104,131.797h-4.256v-6.665h4.212v0.991h-3.032v1.807h2.438v0.967h-2.438v1.865h3.076V131.797z"/>
		<path d="M118.733,131.797h-1.204v-5.835l-1.813,5.835h-0.619l-1.823-5.835v5.835h-0.964v-6.665h1.847l1.372,4.292l1.349-4.292
			h1.856V131.797z"/>
		<path d="M125.623,131.797h-4.256v-6.665h4.212v0.991h-3.032v1.807h2.438v0.967h-2.438v1.865h3.076V131.797z"/>
		<path d="M132.934,131.797h-1.247l-1.018-2.739h-1.66v2.739h-1.18v-6.665h2.84c0.79,0,1.371,0.182,1.742,0.544
			c0.371,0.363,0.557,0.833,0.557,1.409c0,0.856-0.394,1.445-1.181,1.768L132.934,131.797z M129.009,128.096h1.469
			c0.425,0,0.742-0.091,0.95-0.273c0.207-0.183,0.312-0.433,0.312-0.752c0-0.293-0.103-0.529-0.308-0.711
			c-0.204-0.18-0.49-0.271-0.858-0.271h-1.564V128.096z"/>
		<path d="M140.226,128.389v3.408h-0.523l-0.359-0.898c-0.381,0.667-0.971,1.001-1.771,1.001c-0.893,0-1.559-0.345-1.998-1.035
			c-0.44-0.69-0.66-1.489-0.66-2.397c0-0.96,0.245-1.773,0.736-2.439c0.491-0.665,1.178-0.998,2.061-0.998
			c0.659,0,1.201,0.194,1.627,0.584c0.425,0.389,0.693,0.873,0.806,1.452l-1.026,0.186c-0.192-0.813-0.651-1.221-1.377-1.221
			c-0.464,0-0.842,0.192-1.135,0.576s-0.439,0.975-0.439,1.772c0,1.683,0.519,2.524,1.555,2.524c0.403,0,0.736-0.142,1-0.425
			c0.265-0.283,0.396-0.657,0.396-1.123h-1.354v-0.967H140.226z"/>
		<path d="M147.009,131.797h-4.256v-6.665h4.212v0.991h-3.032v1.807h2.438v0.967h-2.438v1.865h3.076V131.797z"/>
		<path d="M154.16,131.797h-1.146l-2.485-4.258c-0.038-0.065-0.101-0.171-0.188-0.317c-0.038-0.065-0.097-0.168-0.177-0.308v4.883
			h-0.95v-6.665h1.305l2.294,3.926c0.019,0.032,0.158,0.271,0.417,0.718v-4.644h0.931V131.797z"/>
		<path d="M160.449,129.482l1.095,0.122c-0.071,0.667-0.324,1.217-0.761,1.647c-0.437,0.432-1.01,0.647-1.72,0.647
			c-0.599,0-1.084-0.153-1.456-0.459c-0.373-0.306-0.66-0.721-0.861-1.245c-0.202-0.524-0.303-1.102-0.303-1.733
			c0-1.016,0.237-1.842,0.71-2.478c0.474-0.637,1.125-0.955,1.953-0.955c0.649,0,1.189,0.203,1.621,0.61
			c0.433,0.407,0.704,0.989,0.816,1.748l-1.095,0.117c-0.201-1.006-0.646-1.509-1.333-1.509c-0.441,0-0.785,0.209-1.029,0.627
			c-0.245,0.419-0.367,1.025-0.367,1.819c0,0.808,0.131,1.417,0.394,1.829c0.262,0.411,0.609,0.617,1.041,0.617
			c0.346,0,0.64-0.139,0.883-0.415S160.418,129.866,160.449,129.482z"/>
		<path d="M166.302,131.797h-1.252v-2.813l-2.231-3.853h1.43l1.555,2.749l1.487-2.749h1.133l-2.121,3.853V131.797z"/>
		<path d="M173.809,131.797v-6.665h2.413c0.892,0,1.608,0.321,2.149,0.964c0.54,0.644,0.811,1.437,0.811,2.381
			s-0.278,1.733-0.835,2.368s-1.353,0.952-2.39,0.952H173.809z M175.021,130.815h0.984c0.527,0,0.976-0.202,1.343-0.605
			c0.368-0.403,0.552-1.004,0.552-1.802c0-0.651-0.16-1.202-0.482-1.652c-0.321-0.451-0.745-0.677-1.273-0.677h-1.123V130.815z"/>
		<path d="M186.358,131.797h-1.262l-0.523-1.587h-2.519l-0.514,1.587h-1.008l2.174-6.665h1.454L186.358,131.797z M184.257,129.248
			l-0.955-2.974l-0.955,2.974H184.257z"/>
		<path d="M190.09,131.797h-1.267v-5.635h-1.741v-1.03h4.75v1.03h-1.742V131.797z"/>
		<path d="M198.37,131.797h-1.262l-0.523-1.587h-2.519l-0.514,1.587h-1.008l2.174-6.665h1.454L198.37,131.797z M196.269,129.248
			l-0.955-2.974l-0.955,2.974H196.269z"/>
		<path d="M208.938,131.797h-1.146l-2.485-4.258c-0.038-0.065-0.101-0.171-0.188-0.317c-0.038-0.065-0.097-0.168-0.177-0.308v4.883
			h-0.95v-6.665h1.305l2.294,3.926c0.019,0.032,0.158,0.271,0.417,0.718v-4.644h0.931V131.797z"/>
		<path d="M215.821,131.797h-4.256v-6.665h4.212v0.991h-3.032v1.807h2.438v0.967h-2.438v1.865h3.076V131.797z"/>
		<path d="M220.315,131.797h-1.267v-5.635h-1.741v-1.03h4.75v1.03h-1.742V131.797z"/>
		<path d="M232.146,125.132l-1.751,6.665h-1.238l-1.305-4.902l-1.185,4.902h-1.214l-1.79-6.665h1.252l1.267,4.858l1.181-4.858h1.194
			l1.306,4.858l1.242-4.858H232.146z"/>
		<path d="M236.415,131.899c-0.87,0-1.547-0.332-2.032-0.996c-0.484-0.664-0.727-1.484-0.727-2.461c0-0.97,0.258-1.781,0.772-2.435
			c0.515-0.652,1.194-0.979,2.039-0.979c0.851,0,1.523,0.326,2.018,0.979c0.494,0.653,0.741,1.47,0.741,2.449
			c0,1.028-0.257,1.859-0.77,2.492C237.943,131.583,237.263,131.899,236.415,131.899z M236.425,130.933
			c0.425,0,0.785-0.179,1.079-0.537c0.295-0.358,0.441-1.008,0.441-1.948c0-0.765-0.121-1.365-0.364-1.799
			c-0.243-0.436-0.621-0.652-1.133-0.652c-1.011,0-1.516,0.828-1.516,2.485c0,0.804,0.129,1.413,0.387,1.829
			C235.576,130.725,235.945,130.933,236.425,130.933z"/>
		<path d="M246.618,131.797h-1.247l-1.018-2.739h-1.66v2.739h-1.18v-6.665h2.84c0.79,0,1.371,0.182,1.742,0.544
			c0.371,0.363,0.557,0.833,0.557,1.409c0,0.856-0.394,1.445-1.181,1.768L246.618,131.797z M242.693,128.096h1.469
			c0.425,0,0.742-0.091,0.95-0.273c0.207-0.183,0.312-0.433,0.312-0.752c0-0.293-0.103-0.529-0.308-0.711
			c-0.204-0.18-0.49-0.271-0.858-0.271h-1.564V128.096z"/>
		<path d="M254.164,131.797h-1.319l-1.382-3.394l-1.267,1.709v1.685h-1.18v-6.665h1.18v3.501c0.15-0.237,0.26-0.402,0.327-0.493
			l2.173-3.008h1.194l-1.554,2.192L254.164,131.797z"/>
	</g>
	<g>
		<path d="M110.303,122.641H93.51l-7.207-18.873h-4.776v18.873H66.378V73.292h25.776c5.688,0,10.104,1.332,13.251,3.995
			c3.145,2.663,4.716,6.176,4.716,10.539c0,2.844-0.578,5.356-1.734,7.537c-1.155,2.183-3.494,4.104-7.014,5.767L110.303,122.641z
			 M81.526,93.212h6.471c1.902,0,3.435-0.396,4.592-1.193c1.157-0.795,1.735-1.964,1.735-3.505c0-3.158-1.94-4.736-5.821-4.736
			h-6.977V93.212z"/>
		<path d="M154.59,110.855v11.785h-37.129V73.292h37.129V84.68h-22.27v7.159h18.003v10.955H132.32v8.062H154.59z"/>
		<path d="M160.591,122.641V73.292h19.089c8.29,0,14.498,2.46,18.619,7.376c4.12,4.916,6.18,10.604,6.18,17.063
			c0,7.376-2.211,13.37-6.633,17.986c-4.424,4.614-10.163,6.923-17.226,6.923H160.591z M175.739,111.289h3.94
			c2.507,0,4.621-1.218,6.344-3.651s2.586-5.748,2.586-9.942c0-3.591-0.767-6.688-2.297-9.29c-1.531-2.604-3.741-3.904-6.633-3.904
			h-3.94V111.289z"/>
		<path d="M253.07,122.641h-12.33l-13.516-21.803c-1.734-2.797-3.483-6.193-5.246-10.192c0.794,3.182,1.193,5.88,1.193,8.099v23.896
			h-12.293V73.292h14.316l11.497,18.075c2.289,3.592,4.025,6.75,5.205,9.474c-0.772-4.219-1.157-8.531-1.157-12.943V73.292h12.33
			V122.641z"/>
		<path d="M45.956,122.641l-2.788-9.724H29.947l-2.962,9.724H14.688l15.234-49.349h16.015l15.479,49.349H45.956z M32.524,102.143
			h7.984l-3.993-14.316L32.524,102.143z"/>
	</g>
	<g>
		<path d="M256.281,117.488v-0.246c0.111,0,0.228-0.01,0.349-0.029c0.057-0.01,0.097-0.026,0.12-0.049s0.041-0.064,0.053-0.125
			c0.014-0.083,0.025-0.392,0.035-0.924c0.006-0.379,0.009-0.766,0.009-1.16c0-0.774-0.003-1.169-0.007-1.184
			c-0.006-0.015-0.074-0.021-0.207-0.021c-0.272,0-0.507,0.008-0.703,0.023c-0.113,0.01-0.178,0.02-0.191,0.029
			c-0.016,0.01-0.026,0.026-0.034,0.051s-0.024,0.195-0.05,0.514h-0.252c0.004-0.373-0.006-0.695-0.029-0.967l0.032-0.023
			c0.615,0.029,1.214,0.045,1.796,0.045c0.58,0,1.229-0.016,1.948-0.045l0.032,0.047c-0.037,0.27-0.063,0.584-0.079,0.943h-0.243
			c-0.018-0.328-0.035-0.508-0.053-0.535c-0.014-0.021-0.045-0.036-0.094-0.044c-0.156-0.026-0.467-0.038-0.932-0.038
			c-0.039,0-0.063,0.006-0.07,0.018c-0.008,0.014-0.012,0.064-0.012,0.154l-0.018,1.971c0,0.571,0.005,0.922,0.015,1.052
			s0.033,0.208,0.071,0.235c0.025,0.018,0.18,0.039,0.462,0.063v0.246c-0.288-0.014-0.593-0.021-0.915-0.021
			C256.89,117.467,256.545,117.475,256.281,117.488z"/>
		<path d="M259.466,117.488v-0.246l0.175-0.012c0.142-0.008,0.23-0.033,0.267-0.074s0.057-0.18,0.063-0.416
			c0.014-0.481,0.021-1.004,0.021-1.565c0-0.298-0.002-0.638-0.004-1.019c-0.004-0.23-0.017-0.371-0.04-0.422
			c-0.012-0.025-0.033-0.045-0.064-0.061s-0.17-0.033-0.416-0.051v-0.246c0.235,0.006,0.468,0.01,0.693,0.01
			c0.263,0,0.517-0.004,0.761-0.01c0.105,0.248,0.215,0.494,0.328,0.738c0.08,0.174,0.435,0.91,1.064,2.211
			c0.664-1.336,1.13-2.318,1.396-2.949c0.233,0.01,0.455,0.016,0.666,0.016c0.247,0,0.486-0.006,0.716-0.016v0.246
			c-0.256,0.016-0.4,0.039-0.434,0.068s-0.055,0.119-0.064,0.27c-0.014,0.246-0.021,0.713-0.021,1.401
			c0,0.348,0.004,0.714,0.01,1.101c0.008,0.387,0.021,0.605,0.04,0.656c0.014,0.029,0.033,0.051,0.059,0.066s0.162,0.035,0.41,0.057
			v0.246c-0.316-0.014-0.599-0.021-0.847-0.021c-0.25,0-0.59,0.008-1.02,0.021v-0.246l0.173-0.006
			c0.137-0.006,0.222-0.025,0.257-0.058c0.033-0.032,0.056-0.117,0.065-0.255s0.015-0.462,0.015-0.974v-1.768
			c-0.301,0.604-0.686,1.395-1.152,2.374c-0.191,0.402-0.342,0.73-0.449,0.984h-0.193c-0.146-0.336-0.342-0.762-0.589-1.275
			l-1.015-2.083v0.397c0,1.102,0.005,1.859,0.015,2.275c0.006,0.168,0.028,0.271,0.067,0.311s0.185,0.064,0.437,0.076v0.246
			c-0.198-0.014-0.397-0.021-0.597-0.021C259.962,117.467,259.697,117.475,259.466,117.488z"/>
	</g>
</g>
</svg>
